<svg xmlns="http://www.w3.org/2000/svg" viewBox="0 0 100 100">
  <circle cx="50" cy="50" r="14" fill="none" stroke="#F2F5EA" stroke-width="3"/>
  <circle cx="50" cy="50" r="5" fill="#F2F5EA"/>
  <g stroke="#F2F5EA" stroke-width="3" stroke-linecap="round">
    <line x1="50" y1="8" x2="50" y2="36"/>
    <line x1="50" y1="64" x2="50" y2="92"/>
    <line x1="8" y1="50" x2="36" y2="50"/>
    <line x1="64" y1="50" x2="92" y2="50"/>
    <line x1="20" y1="20" x2="38" y2="38"/>
    <line x1="80" y1="20" x2="62" y2="38"/>
    <line x1="20" y1="80" x2="38" y2="62"/>
    <line x1="80" y1="80" x2="62" y2="62"/>
  </g>
  <g fill="#F2F5EA">
    <circle cx="50" cy="8" r="4"/>
    <circle cx="50" cy="92" r="4"/>
    <circle cx="8" cy="50" r="4"/>
    <circle cx="92" cy="50" r="4"/>
    <circle cx="20" cy="20" r="4"/>
    <circle cx="80" cy="20" r="4"/>
    <circle cx="20" cy="80" r="4"/>
    <circle cx="80" cy="80" r="4"/>
  </g>
</svg>
